<?xml version="1.0" encoding="UTF-8"?>
<svg xmlns="http://www.w3.org/2000/svg" width="0" height="0">
    <!-- Do not store the "width" and "height" attributes of the SVGs, to allow easier scaling through Tailwind. -->


    <symbol xmlns="http://www.w3.org/2000/svg" viewBox="0 0 24 24"
            fill="none" stroke="currentColor" stroke-width="2" stroke-linecap="round"
            stroke-linejoin="round" id="aipredictionassistantIcon">
        <path d="M12 8V4H8"></path>
        <rect width="16" height="12" x="4" y="8" rx="2"></rect>
        <path d="M2 14h2"></path>
        <path d="M20 14h2"></path>
        <path d="M15 13v2"></path>
        <path d="M9 13v2"></path>
    </symbol>

    <symbol xmlns="http://www.w3.org/2000/svg" viewBox="0 0 24 24" fill="none" stroke="currentColor"
            stroke-width="2" stroke-linecap="round" stroke-linejoin="round"
            id="checkboxIcon">
        <path d="M20 6 9 17l-5-5"></path>
    </symbol>

    <symbol xmlns="http://www.w3.org/2000/svg" id="soccerIcon" viewBox="0 0 19.9 19.9" fill="currentColor">
        <path d="m17 2.9c-3.9-3.9-10.2-3.9-14.1 0s-3.9 10.2 0 14.1c2.5 2.5 6.2 3.5 9.6 2.6s6.1-3.6 7-7c1-3.5 0-7.2-2.5-9.7zm.4 2.8c.6 1.1 1 2.2 1.1 3.4l-1.8-1zm-1.4-1.8c.1.1.3.3.4.4l-1.1 3.6-1.3.4-3.3-2.4v-1.4l3.2-2.2c.7.4 1.5.9 2.1 1.6zm-6-2.5c.8 0 1.6.1 2.3.3l-2.3 1.6-2.3-1.6c.7-.2 1.5-.3 2.3-.3zm-6.1 2.5c.6-.7 1.4-1.2 2.2-1.6l3.2 2.2v1.4l-3.3 2.4-1.4-.4-1.1-3.6c.1-.1.3-.3.4-.4zm-1.4 1.8.7 2.4-1.8 1c.1-1.2.5-2.4 1.1-3.4zm1.4 10.3c-.1-.1-.1-.2-.2-.2h2l.7 1.9c-1-.4-1.8-1-2.5-1.7zm2-1.6h-3.3c-.7-1.1-1.1-2.4-1.2-3.7l2.8-1.5 1.4.4 1.3 3.9zm6 3.9c-1.3.3-2.7.3-4 0l-1-3 1.1-1.1h3.8l1.1 1.1zm0-5.4h-3.9l-1.1-3.7 3.1-2.2 3.1 2.3zm4.1 3.1c-.7.7-1.5 1.3-2.4 1.7l.7-1.9h2c-.1.1-.2.2-.3.2zm-2-1.6-.9-.9 1.3-3.9 1.4-.4 2.8 1.5c-.1 1.3-.5 2.6-1.2 3.7z"/>
    </symbol>

    <symbol xmlns="http://www.w3.org/2000/svg" id="tennisIcon" viewBox="0 0 19.9 19.9" fill="currentColor">
        <path d="m13.2.1c2-.3 3.9.3 5.1 1.6 1.3 1.3 1.8 3.1 1.6 5.1-.3 2-1.3 3.9-2.8 5.5-.8.8-1.6 1.4-2.6 1.9-.8.4-1.7.7-2.6.9l-7.6 1.6-3.3 3.2h-1v-1l3.3-3.3 1.6-7.6c.3-1.9 1.3-3.7 2.8-5.2 1.5-1.5 3.5-2.5 5.5-2.7zm-7.8 12.1-.6 2.9 2.9-.6c-1-.5-1.8-1.3-2.3-2.3zm8.7-10.8c-.3 0-.5 0-.8.1-1.6.2-3.3 1-4.7 2.4-1.2 1.2-2 2.6-2.3 4.1l-.1.3v.2c-.2 1.6.2 3 1.2 4s2.4 1.4 4 1.2h.2l.4-.1c1.5-.3 2.9-1.1 4.1-2.3.7-.7 1.2-1.4 1.6-2.2s.7-1.6.8-2.5c.2-1.6-.2-3-1.2-4-.8-.8-1.9-1.2-3.2-1.2zm-11.4-1.4c.7 0 1.4.3 1.9.8.6.5.9 1.2.9 1.9 0 1.5-1.2 2.7-2.7 2.7s-2.8-1.1-2.8-2.7c0-1.5 1.2-2.7 2.7-2.7zm0 1.4c-.7 0-1.3.6-1.3 1.3 0 .8.6 1.4 1.4 1.4.4 0 .7-.1 1-.4s.4-.6.4-1c-.1-.7-.7-1.3-1.5-1.3z"/>
    </symbol>

    <symbol fill="currentColor" viewBox="0 0 20 20" id="nflIcon">
        <path fill-rule="evenodd"
              d="M18.97 1.03S17.1 0 14.54.08c-1.54.05-3.05.4-4.46 1.03-1.81.8-3.58 2.06-5.28 3.75v.01a17.68 17.68 0 0 0-3.76 5.28c-.65 1.48-1 2.97-1.03 4.46-.07 2.56.95 4.43.95 4.43s1.76.96 4.16.96c1.66 0 3.25-.39 4.73-1.04 1.81-.8 3.58-2.06 5.28-3.75v-.01a17.63 17.63 0 0 0 3.76-5.28c.63-1.4.98-2.92 1.03-4.46.07-2.56-.95-4.43-.95-4.43Zm-1.02 1.02c.27.6.65 1.88.6 3.46a10.11 10.11 0 0 1-.58 2.99L11.5 2.03c.96-.34 1.97-.54 3-.58a8.28 8.28 0 0 1 3.45.6ZM1.38 14.65c-.04 1.72.4 2.94.6 3.37.6.27 1.88.65 3.46.6 1.05-.04 2.08-.25 3.07-.6l-6.52-6.53a10.1 10.1 0 0 0-.61 3.15Zm12.79-.43-.02.02a16.85 16.85 0 0 1-4.28 3.19l-7.3-7.3c.74-1.46 1.8-2.9 3.2-4.28v-.02c1.42-1.4 2.88-2.49 4.37-3.23l7.26 7.26a16.85 16.85 0 0 1-3.23 4.36Zm-3.06-6.3.86-.86.97.97-.86.86.66.65-.98.97-.65-.65-1.27 1.27.65.65-.97.97-.65-.65-.86.86-.97-.97.86-.86-.63-.63.97-.97.63.63 1.27-1.27-.63-.63.97-.97.63.63Z"></path>
    </symbol>

    <symbol xmlns="http://www.w3.org/2000/svg" id="basketballIcon" viewBox="0 0 20 20" fill="currentColor">
        <path d="M15.782 16.392A27.055 27.055 0 0 0 8.438 6.027c.488-.37.998-.71 1.537-1.008 1.184 1.16 2.743 1.715 3.843 2.1.189.064.365.126.523.185 2.666 1 3.361 1.443 4.264 2.147.011.182.028.364.028.548a8.607 8.607 0 0 1-2.851 6.393M9.735 18.62c-.64-1.44-1.117-2.933-1.552-4.905-.347-1.575-.932-3.528-2.332-5.06a12.89 12.89 0 0 1 1.535-1.739 25.73 25.73 0 0 1 7.271 10.342A8.587 8.587 0 0 1 10 18.633c-.09 0-.176-.01-.265-.013m-6.323-3.053c.096-2.08.689-4.03 1.668-5.735.801.971 1.347 2.266 1.768 4.178.377 1.708.797 3.118 1.318 4.422a8.64 8.64 0 0 1-4.754-2.865M1.469 8.738a3.636 3.636 0 0 1 2.544.221 14.02 14.02 0 0 0-1.773 4.8A8.578 8.578 0 0 1 1.367 10c0-.429.042-.848.102-1.26M3.604 4.22a25.941 25.941 0 0 1 2.707 1.831 14.128 14.128 0 0 0-1.538 1.765c-.65-.339-1.697-.714-2.953-.557a8.62 8.62 0 0 1 1.784-3.039m5.524-.297c-.623.356-1.209.766-1.768 1.208A27.728 27.728 0 0 0 4.631 3.25a8.592 8.592 0 0 1 3.971-1.76 5.353 5.353 0 0 0 .526 2.434m.843-2.557H10c1.376 0 2.673.331 3.828.906a13.98 13.98 0 0 0-3.484 1.03 3.946 3.946 0 0 1-.373-1.936m8.306 6.198c-.741-.444-1.695-.88-3.456-1.54a20.046 20.046 0 0 0-.554-.198c-.902-.315-2.047-.718-2.958-1.437a12.663 12.663 0 0 1 4.305-.936 8.646 8.646 0 0 1 2.663 4.111M10 0C4.486 0 0 4.485 0 10s4.486 10 10 10 10-4.486 10-10S15.514 0 10 0"/>
    </symbol>

    <symbol xmlns="http://www.w3.org/2000/svg" viewBox="0 0 24 24" id="chartIcon" fill="currentColor">
        <path fill="currentColor"
              d="M21 8C19.5 8 18.7 9.4 19.1 10.5L15.5 14.1C15.2 14 14.8 14 14.5 14.1L11.9 11.5C12.3 10.4 11.5 9 10 9C8.6 9 7.7 10.4 8.1 11.5L3.5 16C2.4 15.7 1 16.5 1 18C1 19.1 1.9 20 3 20C4.4 20 5.3 18.6 4.9 17.5L9.4 12.9C9.7 13 10.1 13 10.4 12.9L13 15.5C12.7 16.5 13.5 18 15 18C16.5 18 17.3 16.6 16.9 15.5L20.5 11.9C21.6 12.2 23 11.4 23 10C23 8.9 22.1 8 21 8M15 9L15.9 6.9L18 6L15.9 5.1L15 3L14.1 5.1L12 6L14.1 6.9L15 9M3.5 11L4 9L6 8.5L4 8L3.5 6L3 8L1 8.5L3 9L3.5 11Z"/>
    </symbol>

    <symbol xmlns="http://www.w3.org/2000/svg"
            viewBox="0 0 24 24" fill="none" stroke="currentColor"
            stroke-width="2" stroke-linecap="round" stroke-linejoin="round"
            id="checkCircleIcon">
        <circle cx="12" cy="12" r="10"></circle>
        <path d="m9 12 2 2 4-4"></path>
    </symbol>

    <symbol xmlns="http://www.w3.org/2000/svg" viewBox="0 0 24 24"
            fill="none" stroke="currentColor" stroke-width="2" stroke-linecap="round"
            stroke-linejoin="round"
            id="calendarIcon">
        <path d="M8 2v4"></path>
        <path d="M16 2v4"></path>
        <rect width="18" height="18" x="3" y="4" rx="2"></rect>
        <path d="M3 10h18"></path>
    </symbol>

    <symbol xmlns="http://www.w3.org/2000/svg" viewBox="0 0 24 24" fill="none" stroke="currentColor"
            stroke-width="2" stroke-linecap="round" stroke-linejoin="round"
            id="xCircleIcon">
        <circle cx="12" cy="12" r="10"></circle>
        <path d="m15 9-6 6"></path>
        <path d="m9 9 6 6"></path>
    </symbol>

    <symbol xmlns="http://www.w3.org/2000/svg" viewBox="0 0 24 24" fill="none" stroke="currentColor"
            stroke-width="2" stroke-linecap="round" stroke-linejoin="round"
            id="clockIcon">
        <circle cx="12" cy="12" r="10"></circle>
        <polyline points="12 6 12 12 16 14"></polyline>
    </symbol>

    <symbol xmlns="http://www.w3.org/2000/svg" viewBox="0 0 24 24" fill="none" stroke="currentColor"
            stroke-width="2" stroke-linecap="round" stroke-linejoin="round"
            id="checkCircleIcon">
        <circle cx="12" cy="12" r="10"></circle>
        <path d="m9 12 2 2 4-4"></path>
    </symbol>

    <symbol xmlns="http://www.w3.org/2000/svg" viewBox="0 0 24 24" fill="none" stroke="currentColor"
            stroke-width="2" stroke-linecap="round" stroke-linejoin="round"
            id="bankIcon">
        <line x1="3" x2="21" y1="22" y2="22"/>
        <line x1="6" x2="6" y1="18" y2="11"/>
        <line x1="10" x2="10" y1="18" y2="11"/>
        <line x1="14" x2="14" y1="18" y2="11"/>
        <line x1="18" x2="18" y1="18" y2="11"/>
        <polygon points="12 2 20 7 4 7"/>
    </symbol>

    <symbol xmlns="http://www.w3.org/2000/svg" viewBox="0 0 24 24" fill="none" stroke="currentColor"
            stroke-width="2" stroke-linecap="round" stroke-linejoin="round"
            id="bitcoinIcon">
        <path d="M11.767 19.089c4.924.868 6.14-6.025 1.216-6.894m-1.216 6.894L5.86 18.047m5.908 1.042-.347 1.97m1.563-8.864c4.924.869 6.14-6.025 1.215-6.893m-1.215 6.893-3.94-.694m5.155-6.2L8.29 4.26m5.908 1.042.348-1.97M7.48 20.364l3.126-17.727"/>
    </symbol>

    <symbol xmlns="http://www.w3.org/2000/svg" viewBox="0 0 24 24" fill="none" stroke="currentColor"
            stroke-width="2" stroke-linecap="round" stroke-linejoin="round"
            id="idCardIcon">
        <path d="M16 10h2"/>
        <path d="M16 14h2"/>
        <path d="M6.17 15a3 3 0 0 1 5.66 0"/>
        <circle cx="9" cy="11" r="2"/>
        <rect x="2" y="5" width="20" height="14" rx="2"/>
    </symbol>

    <symbol xmlns="http://www.w3.org/2000/svg" viewBox="0 0 24 24" fill="none"
            stroke="currentColor"
            stroke-width="2" stroke-linecap="round" stroke-linejoin="round"
            id="checkIcon">
        <path d="M20 6 9 17l-5-5"></path>
    </symbol>

    <symbol xmlns="http://www.w3.org/2000/svg" viewBox="0 0 27 18" id="elFlagIcon">
        <rect fill="#0D5EAF" width="27" height="18"/>
        <path fill="none" stroke-width="2" stroke="#FFF" d="M5,0V11 M0,5H10 M10,3H27 M10,7H27 M0,11H27 M0,15H27"/>
    </symbol>

    <symbol xmlns="http://www.w3.org/2000/svg" viewBox="0 0 50 30" id="enFlagIcon">
        <clipPath id="t">
            <path d="M25,15h25v15zv15h-25zh-25v-15zv-15h25z"/>
        </clipPath>
        <path d="M0,0v30h50v-30z" fill="#012169"/>
        <path d="M0,0 50,30M50,0 0,30" stroke="#fff" stroke-width="6"/>
        <path d="M0,0 50,30M50,0 0,30" clip-path="url(#t)" stroke="#C8102E" stroke-width="4"/>
        <path d="M-1 11h22v-12h8v12h22v8h-22v12h-8v-12h-22z" fill="#C8102E" stroke="#FFF" stroke-width="2"/>
    </symbol>

    <symbol xmlns="http://www.w3.org/2000/svg" viewBox="0 0 5 3" id="deFlagIcon">
        <rect id="black_stripe" width="5" height="3" y="0" x="0" fill="#000"/>
        <rect id="red_stripe" width="5" height="2" y="1" x="0" fill="#D00"/>
        <rect id="gold_stripe" width="5" height="1" y="2" x="0" fill="#FFCE00"/>
    </symbol>

    <symbol xmlns="http://www.w3.org/2000/svg" viewBox="0 0 24 24" fill="none" stroke="currentColor"
            stroke-width="2" stroke-linecap="round" stroke-linejoin="round" id="arrowRight">
        <path d="M5 12h14"/>
        <path d="m12 5 7 7-7 7"/>
    </symbol>

    <symbol xmlns="http://www.w3.org/2000/svg" viewBox="0 0 24 24" fill="none" stroke="currentColor"
            stroke-width="2" stroke-linecap="round" stroke-linejoin="round" id="chevronUp">
        <path d="m18 15-6-6-6 6"/>
    </symbol>

    <symbol xmlns="http://www.w3.org/2000/svg" viewBox="0 0 24 24" fill="none" stroke="currentColor"
            stroke-width="2" stroke-linecap="round" stroke-linejoin="round" id="circleX">
        <circle cx="12" cy="12" r="10"/>
        <path d="m15 9-6 6"/>
        <path d="m9 9 6 6"/>
    </symbol>
    <symbol xmlns="http://www.w3.org/2000/svg" viewBox="0 0 24 24" fill="none" stroke="currentColor"
            stroke-width="2" stroke-linecap="round" stroke-linejoin="round" id="circleCheck">
        <circle cx="12" cy="12" r="10"/>
        <path d="m9 12 2 2 4-4"/>
    </symbol>

    <symbol xmlns="http://www.w3.org/2000/svg" viewBox="0 0 24 24"
            fill="none"
            stroke="currentColor" stroke-width="2" stroke-linecap="round" stroke-linejoin="round" id="lock">
        <rect width="18" height="11" x="3" y="11" rx="2" ry="2"></rect>
        <path d="M7 11V7a5 5 0 0 1 10 0v4"></path>
    </symbol>

    <symbol xmlns="http://www.w3.org/2000/svg"
            viewBox="0 0 24 24"
            fill="none"
            stroke="currentColor" stroke-width="2" stroke-linecap="round"
            stroke-linejoin="round"
            id="aianalystIcon"
    >
        <path d="M12 8V4H8"></path>
        <rect width="16" height="12" x="4" y="8" rx="2"></rect>
        <path d="M2 14h2"></path>
        <path d="M20 14h2"></path>
        <path d="M15 13v2"></path>
        <path d="M9 13v2"></path>
    </symbol>

    <symbol xmlns="http://www.w3.org/2000/svg" viewBox="0 0 24 24"
            fill="none" stroke="currentColor" stroke-width="2" stroke-linecap="round"
            stroke-linejoin="round" id="allsportsIcon">
        <path d="M6 9H4.5a2.5 2.5 0 0 1 0-5H6"></path>
        <path d="M18 9h1.5a2.5 2.5 0 0 0 0-5H18"></path>
        <path d="M4 22h16"></path>
        <path d="M10 14.66V17c0 .55-.47.98-.97 1.21C7.85 18.75 7 20.24 7 22"></path>
        <path d="M14 14.66V17c0 .55.47.98.97 1.21C16.15 18.75 17 20.24 17 22"></path>
        <path d="M18 2H6v7a6 6 0 0 0 12 0V2Z"></path>
    </symbol>


</svg>