<?xml version="1.0" encoding="UTF-8"?>
<svg xmlns="http://www.w3.org/2000/svg" width="0" height="0">
    <!-- Do not store the "width" and "height" attributes of the SVGs, to allow easier scaling through Tailwind. -->


    <symbol xmlns="http://www.w3.org/2000/svg" viewBox="0 0 24 24" fill="none" stroke="currentColor"
            stroke-width="2" stroke-linecap="round" stroke-linejoin="round"
            id="nflIcon">
        <path d="M4 15s1-1 4-1 5 2 8 2 4-1 4-1V3s-1 1-4 1-5-2-8-2-4 1-4 1z"></path>
        <line x1="4" x2="4" y1="22" y2="15"></line>
    </symbol>

    <symbol xmlns="http://www.w3.org/2000/svg" viewBox="0 0 24 24"
            fill="none" stroke="currentColor" stroke-width="2" stroke-linecap="round"
            stroke-linejoin="round" id="aipredictionassistantIcon">
        <path d="M12 8V4H8"></path>
        <rect width="16" height="12" x="4" y="8" rx="2"></rect>
        <path d="M2 14h2"></path>
        <path d="M20 14h2"></path>
        <path d="M15 13v2"></path>
        <path d="M9 13v2"></path>
    </symbol>

    <symbol xmlns="http://www.w3.org/2000/svg" viewBox="0 0 24 24" fill="none" stroke="currentColor"
            stroke-width="2" stroke-linecap="round" stroke-linejoin="round"
            id="checkboxIcon">
        <path d="M20 6 9 17l-5-5"></path>
    </symbol>

    <symbol xmlns="http://www.w3.org/2000/svg" id="soccerIcon" viewBox="0 0 19.9 19.9" fill="currentColor">
        <path d="m17 2.9c-3.9-3.9-10.2-3.9-14.1 0s-3.9 10.2 0 14.1c2.5 2.5 6.2 3.5 9.6 2.6s6.1-3.6 7-7c1-3.5 0-7.2-2.5-9.7zm.4 2.8c.6 1.1 1 2.2 1.1 3.4l-1.8-1zm-1.4-1.8c.1.1.3.3.4.4l-1.1 3.6-1.3.4-3.3-2.4v-1.4l3.2-2.2c.7.4 1.5.9 2.1 1.6zm-6-2.5c.8 0 1.6.1 2.3.3l-2.3 1.6-2.3-1.6c.7-.2 1.5-.3 2.3-.3zm-6.1 2.5c.6-.7 1.4-1.2 2.2-1.6l3.2 2.2v1.4l-3.3 2.4-1.4-.4-1.1-3.6c.1-.1.3-.3.4-.4zm-1.4 1.8.7 2.4-1.8 1c.1-1.2.5-2.4 1.1-3.4zm1.4 10.3c-.1-.1-.1-.2-.2-.2h2l.7 1.9c-1-.4-1.8-1-2.5-1.7zm2-1.6h-3.3c-.7-1.1-1.1-2.4-1.2-3.7l2.8-1.5 1.4.4 1.3 3.9zm6 3.9c-1.3.3-2.7.3-4 0l-1-3 1.1-1.1h3.8l1.1 1.1zm0-5.4h-3.9l-1.1-3.7 3.1-2.2 3.1 2.3zm4.1 3.1c-.7.7-1.5 1.3-2.4 1.7l.7-1.9h2c-.1.1-.2.2-.3.2zm-2-1.6-.9-.9 1.3-3.9 1.4-.4 2.8 1.5c-.1 1.3-.5 2.6-1.2 3.7z"/>
    </symbol>

    <symbol xmlns="http://www.w3.org/2000/svg" id="nflIcon" viewBox="0 0 19.9 19.9" fill="currentColor">
        <path d="m10 0c5.5 0 10 4.6 9.9 10 0 6.4-5.3 10-5.3 10h-5v-3c-1.3 1.8-3.5 2.9-5.7 2.9h-3.9v-1.4h3.9c1.4 0 2.7-.5 3.7-1.4h-7.6v-1.4h8.8c.3-.4.5-.9.6-1.4h-9.4v-1.4h9.6v-2.1h-9.6v-1c0-2.6 1-5.2 2.9-7.1 1.9-1.6 4.4-2.7 7.1-2.7zm0 1.4c-4.6 0-8.4 3.7-8.6 8.2h9.6v8.9h3.2s4.4-3.1 4.4-8.6c-.1-4.6-3.9-8.5-8.6-8.5zm3.7 8.2v1.4h-1.4v-1.4z"/>
    </symbol>
    <symbol xmlns="http://www.w3.org/2000/svg" id="basketballIcon" viewBox="0 0 20 20" fill="currentColor">
        <path d="M15.782 16.392A27.055 27.055 0 0 0 8.438 6.027c.488-.37.998-.71 1.537-1.008 1.184 1.16 2.743 1.715 3.843 2.1.189.064.365.126.523.185 2.666 1 3.361 1.443 4.264 2.147.011.182.028.364.028.548a8.607 8.607 0 0 1-2.851 6.393M9.735 18.62c-.64-1.44-1.117-2.933-1.552-4.905-.347-1.575-.932-3.528-2.332-5.06a12.89 12.89 0 0 1 1.535-1.739 25.73 25.73 0 0 1 7.271 10.342A8.587 8.587 0 0 1 10 18.633c-.09 0-.176-.01-.265-.013m-6.323-3.053c.096-2.08.689-4.03 1.668-5.735.801.971 1.347 2.266 1.768 4.178.377 1.708.797 3.118 1.318 4.422a8.64 8.64 0 0 1-4.754-2.865M1.469 8.738a3.636 3.636 0 0 1 2.544.221 14.02 14.02 0 0 0-1.773 4.8A8.578 8.578 0 0 1 1.367 10c0-.429.042-.848.102-1.26M3.604 4.22a25.941 25.941 0 0 1 2.707 1.831 14.128 14.128 0 0 0-1.538 1.765c-.65-.339-1.697-.714-2.953-.557a8.62 8.62 0 0 1 1.784-3.039m5.524-.297c-.623.356-1.209.766-1.768 1.208A27.728 27.728 0 0 0 4.631 3.25a8.592 8.592 0 0 1 3.971-1.76 5.353 5.353 0 0 0 .526 2.434m.843-2.557H10c1.376 0 2.673.331 3.828.906a13.98 13.98 0 0 0-3.484 1.03 3.946 3.946 0 0 1-.373-1.936m8.306 6.198c-.741-.444-1.695-.88-3.456-1.54a20.046 20.046 0 0 0-.554-.198c-.902-.315-2.047-.718-2.958-1.437a12.663 12.663 0 0 1 4.305-.936 8.646 8.646 0 0 1 2.663 4.111M10 0C4.486 0 0 4.485 0 10s4.486 10 10 10 10-4.486 10-10S15.514 0 10 0"/>
    </symbol>
</svg>